<svg xmlns="http://www.w3.org/2000/svg">
  <symbol id="icon" fill="none" viewBox="0 0 16 16"><path fill="currentColor" d="M9 2a1 1 0 0 1 1 1v1h3a.5.5 0 0 1 0 1h-.527l-.448 8.056a1 1 0 0 1-.998.944H4.973a1 1 0 0 1-.998-.944L3.527 5H3a.5.5 0 0 1 0-1h3V3a1 1 0 0 1 1-1h2ZM4.973 13h6.054l.445-8H4.528l.445 8Zm1.502-6.999a.5.5 0 0 1 .51.374l.014.1.25 5-.005.101a.5.5 0 0 1-.978.05l-.015-.1-.25-5 .005-.102a.5.5 0 0 1 .469-.423Zm3.05 0a.5.5 0 0 1 .474.525l-.25 5a.5.5 0 0 1-.998-.051l.25-5A.5.5 0 0 1 9.525 6ZM7 4.001h2V3l-2-.002V4Z"/></symbol>
  <symbol id="icon-large" fill="none" viewBox="0 0 24 24"><path fill="currentColor" fill-rule="evenodd" d="M14.5 3a.5.5 0 0 1 .5.5V5H9V3.5a.5.5 0 0 1 .5-.5h5ZM8 5V3.5A1.5 1.5 0 0 1 9.5 2h5A1.5 1.5 0 0 1 16 3.5V5h5.5a.5.5 0 0 1 0 1h-1.53l-.912 14.594A1.5 1.5 0 0 1 17.56 22H6.439a1.5 1.5 0 0 1-1.497-1.406L4.03 6H2.5a.5.5 0 0 1 0-1H8ZM5.032 6h13.936l-.908 14.531a.5.5 0 0 1-.5.469H6.44a.5.5 0 0 1-.5-.469L5.032 6ZM16.5 8.525a.5.5 0 0 0-.998-.05l-.5 10a.5.5 0 0 0 .998.05l.5-10Zm-5 9.975v-10a.5.5 0 0 1 1 0v10a.5.5 0 0 1-1 0ZM8.499 8.475a.5.5 0 0 0-.998.05l.5 10a.5.5 0 0 0 .998-.05l-.5-10Z" clip-rule="evenodd"/></symbol>
  <use href="#icon"/>
</svg>
